<svg version="1.1" id="Layer_1" xmlns="http://www.w3.org/2000/svg" xmlns:xlink="http://www.w3.org/1999/xlink" x="0px" y="0px"
	 width="40px" viewBox="224 175 577 685" xml:space="preserve">
<path fill="#7CB13A" opacity="1.000000" stroke="none" 
	d="
M224.929489,243.886871 
	C226.152313,243.589951 227.367462,243.073410 228.599167,243.030289 
	C240.026581,242.630051 251.494415,242.774841 262.876740,241.851791 
	C277.118317,240.696869 291.376129,239.211716 305.472443,236.919174 
	C327.300415,233.369232 349.131836,229.622421 370.717346,224.852890 
	C399.378876,218.519821 427.252502,209.309052 454.608917,198.689529 
	C473.243958,191.455566 491.691193,183.723953 510.085266,175.892838 
	C514.635681,173.955521 516.935059,178.285629 520.527710,178.778427 
	C517.974182,178.563843 515.471313,177.952316 512.948547,177.335922 
	C512.948547,219.021988 512.948547,260.472534 512.489746,301.945404 
	C504.723816,302.430145 497.341736,302.381348 490.121979,303.439697 
	C449.690735,309.366547 415.782288,327.556458 388.341400,357.929688 
	C356.188995,393.517944 340.099762,435.730194 337.202698,483.087677 
	C334.731873,523.477905 343.406372,561.629822 363.639313,596.805664 
	C368.392334,605.069031 374.766296,612.400024 380.436859,620.484863 
	C381.271149,622.053772 381.857025,623.510498 382.887207,624.508606 
	C392.681488,633.998108 401.912170,644.210327 412.527618,652.682739 
	C437.202698,672.376587 465.741913,683.351746 497.289795,687.402466 
	C500.996796,687.757141 504.476959,687.830872 508.360443,687.815186 
	C509.860168,687.801697 510.956573,687.877625 512.185913,688.349609 
	C512.542419,690.387390 512.961182,692.029114 512.960999,693.670776 
	C512.954346,746.102173 512.907166,798.533508 512.658691,850.977905 
	C512.451416,850.990906 512.036621,851.015625 511.867432,851.227295 
	C511.477478,851.930359 511.256744,852.421692 511.007202,852.951904 
	C510.978455,852.990723 510.966766,853.086731 510.966766,853.086731 
	C491.660553,845.047729 472.046570,837.662109 453.147247,828.759216 
	C438.495636,821.857422 424.243103,813.812256 410.701019,804.922791 
	C391.791595,792.510071 373.198822,779.487427 355.415588,765.522278 
	C337.459900,751.421692 320.669159,735.815857 306.360901,717.853027 
	C295.806274,704.602722 284.867096,691.575195 275.358459,677.592102 
	C253.906464,646.045410 239.307632,611.303406 231.318497,574.032227 
	C228.123566,559.127197 225.832565,543.816345 225.246704,528.608704 
	C224.062927,497.880798 224.108841,467.097687 224.038666,436.336456 
	C223.896210,373.875427 224.013687,311.413818 224.241272,248.869476 
	C224.643005,251.765640 224.987579,254.744690 224.988602,257.723877 
	C225.016052,338.009857 224.836807,418.296478 225.152054,498.581207 
	C225.214600,514.506958 227.089722,530.429810 228.271408,546.343445 
	C228.532394,549.857910 229.397949,553.327454 229.985123,556.817688 
	C230.746078,555.390015 230.614197,554.113647 230.477631,552.837830 
	C229.327301,542.090088 227.210495,531.345337 227.177277,520.594177 
	C226.900757,431.147797 227.026688,341.700165 226.945312,252.253006 
	C226.941330,247.874664 228.290146,246.059036 232.941544,245.921402 
	C247.565201,245.488693 262.183075,244.740677 276.788177,243.865051 
	C282.041107,243.550140 287.251495,242.525970 292.481262,241.825500 
	C276.163269,242.423996 259.935822,243.668976 243.686707,244.480865 
	C237.459747,244.791992 231.183350,244.114090 224.929489,243.886871 
M306.125244,240.274414 
	C306.954803,240.090057 307.784363,239.905716 308.613892,239.721375 
	C308.561401,239.445084 308.508881,239.168808 308.456390,238.892517 
	C305.149139,239.328995 301.841888,239.765472 298.534668,240.201950 
	C298.574860,240.514313 298.615082,240.826660 298.655273,241.139008 
	C300.912964,240.895767 303.170624,240.652512 306.125244,240.274414 
M231.700714,562.716431 
	C231.561539,562.879333 231.422348,563.042297 231.283173,563.205200 
	C231.449661,563.107727 231.616165,563.010254 231.700714,562.716431 
M233.695480,572.717957 
	C233.558014,572.878845 233.420563,573.039673 233.283112,573.200500 
	C233.447632,573.104370 233.612152,573.008179 233.695480,572.717957 
M234.399704,578.617615 
	C234.399704,578.617615 234.648209,578.440796 234.648209,578.440796 
	C234.648209,578.440796 234.361938,578.495300 234.399704,578.617615 
M232.464111,569.037292 
	C232.464111,569.037292 232.467880,568.989746 232.464111,569.037292 
z"/>
<path fill="#6EA032" opacity="1.000000" stroke="none" 
	d="
M512.948547,301.923065 
	C512.948547,260.472534 512.948547,219.021988 512.948547,177.335922 
	C515.471313,177.952316 517.974182,178.563843 520.755981,179.055618 
	C527.900391,181.748810 534.765991,184.561768 541.909851,188.005325 
	C543.315369,189.743835 544.247986,191.312408 545.601624,191.883957 
	C553.695129,195.301117 561.848083,198.589447 570.080383,201.654205 
	C571.458679,202.167328 573.322327,201.376862 574.961670,201.188751 
	C580.453674,203.382751 585.831055,205.945709 591.460999,207.695908 
	C604.152710,211.641449 616.850830,215.678589 629.761658,218.782700 
	C652.400391,224.225601 675.193848,229.027588 697.939880,234.018936 
	C701.945801,234.897980 706.036499,235.390976 710.394287,236.309708 
	C711.797668,236.747208 712.894653,236.937241 713.991699,237.127289 
	C714.577209,237.185150 715.162781,237.243011 716.233765,237.759277 
	C719.148010,238.756226 721.553589,239.598480 724.009094,239.786133 
	C747.553711,241.585388 771.100098,243.377823 794.664001,244.891739 
	C798.561157,245.142120 800.145081,245.829361 800.138000,250.211136 
	C800.001526,334.193665 800.065735,418.176514 799.984741,502.159180 
	C799.974609,512.635864 799.316162,523.110779 799.100708,533.589417 
	C799.050232,536.044556 799.580444,538.511597 799.843445,540.973206 
	C798.428406,550.880859 797.757874,560.967957 795.423889,570.654175 
	C791.928162,585.161499 787.580017,599.490112 782.962646,613.689270 
	C780.665283,620.753906 776.919495,627.342590 773.922791,634.187622 
	C773.010193,636.272034 772.410522,638.493408 771.210938,640.708130 
	C769.659607,641.650574 768.161560,642.318420 767.541626,643.462280 
	C765.181946,647.815613 763.486633,652.563538 760.852356,656.727112 
	C752.808472,669.441284 744.403503,681.926575 736.261719,694.579895 
	C735.371643,695.963135 735.278687,697.859314 734.816040,699.517639 
	C734.816040,699.517639 734.742859,699.741638 734.338013,699.715820 
	C733.012939,700.259460 731.901001,700.654663 731.201660,701.424683 
	C722.125244,711.418091 713.162964,721.515503 704.053467,731.478455 
	C698.784912,737.240601 693.615051,743.152527 687.839233,748.376221 
	C680.364441,755.136475 672.267944,761.205261 664.594482,767.753662 
	C663.269958,768.884033 662.717041,770.918640 661.807617,772.535522 
	C661.807617,772.535522 661.738708,772.753113 661.254028,772.691772 
	C659.674561,772.892883 658.378967,772.867126 657.518860,773.466431 
	C653.175598,776.492493 649.030151,779.804688 644.659729,782.788818 
	C633.402649,790.475037 622.327637,798.473877 610.703796,805.567749 
	C584.538330,821.536011 557.268799,835.380798 528.468506,846.034363 
	C523.358887,847.924438 518.071472,849.333679 512.866089,850.964966 
	C512.907166,798.533508 512.954346,746.102173 512.960999,693.670776 
	C512.961182,692.029114 512.542419,690.387390 512.624695,688.273987 
	C565.936829,686.557983 608.878784,664.488525 643.241028,624.742249 
	C644.335510,623.476257 644.854675,621.713074 645.987061,620.067261 
	C647.959656,618.331543 649.852600,616.901001 651.175293,615.060608 
	C674.028076,583.264343 686.530884,547.652710 688.839539,508.700317 
	C690.847107,474.826935 685.547363,442.045044 671.782715,410.747253 
	C659.435059,382.671356 642.124817,358.367615 618.135376,339.176483 
	C587.448181,314.627441 552.430054,301.862457 512.948547,301.923065 
z"/>
<path fill="#75A53A" opacity="1.000000" stroke="none" 
	d="
M799.910034,540.579956 
	C799.580444,538.511597 799.050232,536.044556 799.100708,533.589417 
	C799.316162,523.110779 799.974609,512.635864 799.984741,502.159180 
	C800.065735,418.176514 800.001526,334.193665 800.138000,250.211136 
	C800.145081,245.829361 798.561157,245.142120 794.664001,244.891739 
	C771.100098,243.377823 747.553711,241.585388 724.009094,239.786133 
	C721.553589,239.598480 719.148010,238.756226 716.390503,238.019196 
	C732.760986,239.516052 749.435669,241.543411 766.168823,242.780548 
	C775.997437,243.507217 785.925293,243.198196 795.795959,242.915894 
	C800.484192,242.781799 802.103638,244.062653 802.096191,249.007721 
	C801.959473,340.283112 802.032898,431.558868 801.909790,522.834290 
	C801.901978,528.619263 800.649902,534.402588 799.910034,540.579956 
z"/>
<path fill="#74AC2E" opacity="1.000000" stroke="none" 
	d="
M224.614685,244.095108 
	C231.183350,244.114090 237.459747,244.791992 243.686707,244.480865 
	C259.935822,243.668976 276.163269,242.423996 292.481262,241.825500 
	C287.251495,242.525970 282.041107,243.550140 276.788177,243.865051 
	C262.183075,244.740677 247.565201,245.488693 232.941544,245.921402 
	C228.290146,246.059036 226.941330,247.874664 226.945312,252.253006 
	C227.026688,341.700165 226.900757,431.147797 227.177277,520.594177 
	C227.210495,531.345337 229.327301,542.090088 230.477631,552.837830 
	C230.614197,554.113647 230.746078,555.390015 229.985123,556.817688 
	C229.397949,553.327454 228.532394,549.857910 228.271408,546.343445 
	C227.089722,530.429810 225.214600,514.506958 225.152054,498.581207 
	C224.836807,418.296478 225.016052,338.009857 224.988602,257.723877 
	C224.987579,254.744690 224.643005,251.765640 224.305817,248.406418 
	C224.202011,246.785339 224.250931,245.544342 224.614685,244.095108 
z"/>
<path fill="#75A53A" opacity="1.000000" stroke="none" 
	d="
M512.658752,850.977905 
	C518.071472,849.333679 523.358887,847.924438 528.468506,846.034363 
	C557.268799,835.380798 584.538330,821.536011 610.703796,805.567749 
	C622.327637,798.473877 633.402649,790.475037 644.659729,782.788818 
	C649.030151,779.804688 653.175598,776.492493 657.518860,773.466431 
	C658.378967,772.867126 659.674561,772.892883 661.145020,772.725464 
	C645.252502,784.226257 629.284119,796.095093 612.617737,806.885742 
	C600.111084,814.983337 587.021667,822.342407 573.620544,828.854919 
	C557.715088,836.584412 541.249451,843.179199 524.909729,849.985046 
	C520.626404,851.769226 515.910400,852.514709 511.179932,853.411987 
	C510.966766,853.086731 510.978455,852.990723 511.165466,852.733643 
	C511.580536,851.989624 511.808594,851.502625 512.036621,851.015625 
	C512.036621,851.015625 512.451416,850.990906 512.658752,850.977905 
z"/>
<path fill="#75A53A" opacity="1.000000" stroke="none" 
	d="
M662.056213,772.329468 
	C662.717041,770.918640 663.269958,768.884033 664.594482,767.753662 
	C672.267944,761.205261 680.364441,755.136475 687.839233,748.376221 
	C693.615051,743.152527 698.784912,737.240601 704.053467,731.478455 
	C713.162964,721.515503 722.125244,711.418091 731.201660,701.424683 
	C731.901001,700.654663 733.012939,700.259460 734.225952,699.752319 
	C713.552673,727.018677 689.206116,750.846802 662.056213,772.329468 
z"/>
<path fill="#75A53A" opacity="1.000000" stroke="none" 
	d="
M735.068237,699.318604 
	C735.278687,697.859314 735.371643,695.963135 736.261719,694.579895 
	C744.403503,681.926575 752.808472,669.441284 760.852356,656.727112 
	C763.486633,652.563538 765.181946,647.815613 767.541626,643.462280 
	C768.161560,642.318420 769.659607,641.650574 770.911499,640.934082 
	C762.718872,655.554565 754.512268,670.090698 745.943542,684.410278 
	C742.849426,689.580811 738.886780,694.231628 735.068237,699.318604 
z"/>
<path fill="#75A53A" opacity="1.000000" stroke="none" 
	d="
M574.635864,201.018906 
	C573.322327,201.376862 571.458679,202.167328 570.080383,201.654205 
	C561.848083,198.589447 553.695129,195.301117 545.601624,191.883957 
	C544.247986,191.312408 543.315369,189.743835 542.134399,188.289368 
	C552.823792,192.244888 563.566895,196.546982 574.635864,201.018906 
z"/>
<path fill="#75A53A" opacity="1.000000" stroke="none" 
	d="
M713.686279,236.997864 
	C712.894653,236.937241 711.797668,236.747208 710.810547,236.395538 
	C711.740601,236.445404 712.560791,236.656937 713.686279,236.997864 
z"/>
<path fill="#5B882A" opacity="1.000000" stroke="none" 
	d="
M512.489746,301.945404 
	C552.430054,301.862457 587.448181,314.627441 618.135376,339.176483 
	C642.124817,358.367615 659.435059,382.671356 671.782715,410.747253 
	C685.547363,442.045044 690.847107,474.826935 688.839539,508.700317 
	C686.530884,547.652710 674.028076,583.264343 651.175293,615.060608 
	C649.852600,616.901001 647.959656,618.331543 645.742065,619.797852 
	C644.824646,618.356873 644.601746,617.033508 644.154724,615.790649 
	C631.332275,580.138855 608.798035,552.713867 575.043884,535.056641 
	C567.026733,530.862793 558.455627,527.727905 549.848694,523.979309 
	C550.426086,523.508423 551.005310,522.993896 551.626099,522.535889 
	C576.803284,503.960388 587.352417,473.051453 578.869141,442.696289 
	C566.462952,398.303925 518.092224,377.546295 479.824158,400.192383 
	C435.993591,426.130188 431.919769,488.904144 471.953583,521.429871 
	C473.281494,522.508728 474.579620,523.624207 476.106598,524.902649 
	C475.142548,525.404724 474.740814,525.689819 474.293701,525.835999 
	C435.412750,538.545471 406.849579,563.218567 388.794434,599.906128 
	C385.573822,606.450378 383.173645,613.398438 380.394592,620.159973 
	C374.766296,612.400024 368.392334,605.069031 363.639313,596.805664 
	C343.406372,561.629822 334.731873,523.477905 337.202698,483.087677 
	C340.099762,435.730194 356.188995,393.517944 388.341400,357.929688 
	C415.782288,327.556458 449.690735,309.366547 490.121979,303.439697 
	C497.341736,302.381348 504.723816,302.430145 512.489746,301.945404 
z"/>
<path fill="#D0DDE1" opacity="1.000000" stroke="none" 
	d="
M380.436890,620.484863 
	C383.173645,613.398438 385.573822,606.450378 388.794434,599.906128 
	C406.849579,563.218567 435.412750,538.545471 474.293701,525.835999 
	C474.740814,525.689819 475.142548,525.404724 476.106598,524.902649 
	C474.579620,523.624207 473.281494,522.508728 471.953583,521.429871 
	C431.919769,488.904144 435.993591,426.130188 479.824158,400.192383 
	C518.092224,377.546295 566.462952,398.303925 578.869141,442.696289 
	C587.352417,473.051453 576.803284,503.960388 551.626099,522.535889 
	C551.005310,522.993896 550.426086,523.508423 549.848694,523.979309 
	C558.455627,527.727905 567.026733,530.862793 575.043884,535.056641 
	C608.798035,552.713867 631.332275,580.138855 644.154724,615.790649 
	C644.601746,617.033508 644.824646,618.356873 645.397034,619.912231 
	C644.854675,621.713074 644.335510,623.476257 643.241028,624.742249 
	C608.878784,664.488525 565.936829,686.557983 512.491699,687.877930 
	C510.956573,687.877625 509.860168,687.801697 507.957336,687.718994 
	C503.788239,687.515320 500.425598,687.318359 497.062927,687.121460 
	C465.741913,683.351746 437.202698,672.376587 412.527618,652.682739 
	C401.912170,644.210327 392.681488,633.998108 382.887207,624.508606 
	C381.857025,623.510498 381.271149,622.053772 380.436890,620.484863 
z"/>
<path fill="#74AC2E" opacity="1.000000" stroke="none" 
	d="
M305.776794,240.341827 
	C303.170624,240.652512 300.912964,240.895767 298.655273,241.139008 
	C298.615082,240.826660 298.574860,240.514313 298.534668,240.201950 
	C301.841888,239.765472 305.149139,239.328995 308.456390,238.892517 
	C308.508881,239.168808 308.561401,239.445084 308.613892,239.721375 
	C307.784363,239.905716 306.954803,240.090057 305.776794,240.341827 
z"/>
<path fill="#6EA032" opacity="1.000000" stroke="none" 
	d="
M497.289795,687.402466 
	C500.425598,687.318359 503.788239,687.515320 507.554016,687.808411 
	C504.476959,687.830872 500.996796,687.757141 497.289795,687.402466 
z"/>
<path fill="#74AC2E" opacity="1.000000" stroke="none" 
	d="
M231.741684,562.814575 
	C231.616165,563.010254 231.449661,563.107727 231.283173,563.205200 
	C231.422348,563.042297 231.561539,562.879333 231.741684,562.814575 
z"/>
<path fill="#74AC2E" opacity="1.000000" stroke="none" 
	d="
M233.736084,572.814941 
	C233.612152,573.008179 233.447632,573.104370 233.283112,573.200500 
	C233.420563,573.039673 233.558014,572.878845 233.736084,572.814941 
z"/>
<path fill="#74AC2E" opacity="1.000000" stroke="none" 
	d="
M234.380829,578.556458 
	C234.361938,578.495300 234.648209,578.440796 234.648209,578.440796 
	C234.648209,578.440796 234.399704,578.617615 234.380829,578.556458 
z"/>
<path fill="#74AC2E" opacity="1.000000" stroke="none" 
	d="
M232.466003,569.013550 
	C232.467880,568.989746 232.464111,569.037292 232.466003,569.013550 
z"/>
<path fill="#6EA032" opacity="1.000000" stroke="none" 
	d="
M511.867432,851.227295 
	C511.808594,851.502625 511.580536,851.989624 511.194214,852.694824 
	C511.256744,852.421692 511.477478,851.930359 511.867432,851.227295 
z"/>
</svg>